<svg width="565" height="565" viewBox="0 0 565 565" fill="none" xmlns="http://www.w3.org/2000/svg">
<g clip-path="url(#clip0_67_23)">
<mask id="mask0_67_23" style="mask-type:luminance" maskUnits="userSpaceOnUse" x="37" y="133" width="490" height="298">
<path d="M526.794 133.794H37.7939V430.794H526.794V133.794Z" fill="white"/>
</mask>
<g mask="url(#mask0_67_23)">
<path d="M223.776 429.841C194.827 429.841 170.792 413.558 150.266 380.067C134.619 354.552 122.425 321.376 110.639 289.311C98.0762 255.117 85.1254 219.906 69.3115 197.962C55.6403 179.015 44.7773 176.813 37.7939 176.813V133.794H155.254C180.601 133.794 202.937 146.913 221.615 172.761C240.883 199.498 254.869 237.54 268.392 274.323C278.608 302.115 289.157 330.814 301.221 352.202L307.188 362.787L301.221 373.37C293.352 387.339 269.389 429.841 223.795 429.841H223.776ZM106.962 176.813C124.79 203.254 138.055 239.353 150.913 274.305C170.33 327.094 192.277 386.803 223.776 386.803C231.554 386.803 243.156 384.01 257.787 362.045C246.702 339.898 237.244 314.216 228.081 289.255C215.537 255.136 202.586 219.906 186.772 197.962C173.082 179.015 162.22 176.813 155.236 176.813H106.962Z" fill="#F7F7F7"/>
<path d="M340.793 429.841C295.197 429.841 271.236 387.343 263.367 373.374L257.4 362.791L263.367 352.207C275.43 330.8 285.98 302.123 296.177 274.389C309.719 237.552 323.703 199.512 342.973 172.777C361.65 146.893 383.986 133.794 409.333 133.794H526.794V176.829C519.81 176.829 508.946 179.031 495.258 197.995C479.462 219.92 466.51 255.147 453.985 289.209C442.162 321.383 429.97 354.539 414.322 380.071C393.796 413.558 369.761 429.841 340.812 429.841H340.793ZM306.781 362.051C321.414 384.012 333.015 386.805 340.793 386.805C372.291 386.805 394.24 327.119 413.601 274.444C426.496 239.365 439.779 203.25 457.588 176.811H409.315C402.331 176.811 391.467 179.012 377.779 197.977C361.983 219.901 349.032 255.129 336.507 289.19C327.307 314.205 317.866 339.885 306.781 362.032V362.051Z" fill="#F7F7F7"/>
</g>
</g>
<defs>
<clipPath id="clip0_67_23">
<rect width="489" height="297" fill="white" transform="translate(37.7939 133.794)"/>
</clipPath>
</defs>
</svg>
