<svg width="565" height="565" viewBox="0 0 565 565" fill="none" xmlns="http://www.w3.org/2000/svg">
<g clip-path="url(#clip0_67_21)">
<mask id="mask0_67_21" style="mask-type:luminance" maskUnits="userSpaceOnUse" x="38" y="134" width="489" height="297">
<path d="M527 134H38V431H527V134Z" fill="white"/>
</mask>
<g mask="url(#mask0_67_21)">
<path d="M223.982 430.047C195.033 430.047 170.998 413.764 150.473 380.273C134.825 354.758 122.631 321.582 110.845 289.517C98.2822 255.324 85.3315 220.113 69.5175 198.168C55.8463 179.221 44.9833 177.019 38 177.019V134H155.461C180.807 134 203.143 147.119 221.821 172.967C241.089 199.704 255.075 237.746 268.598 274.53C278.814 302.321 289.364 331.02 301.427 352.408L307.394 362.993L301.427 373.576C293.558 387.545 269.595 430.047 224.001 430.047H223.982ZM107.168 177.019C124.996 203.46 138.261 239.559 151.119 274.511C170.536 327.3 192.483 387.009 223.982 387.009C231.76 387.009 243.362 384.216 257.994 362.251C246.908 340.104 237.45 314.422 228.287 289.461C215.743 255.342 202.792 220.113 186.978 198.168C173.288 179.221 162.426 177.019 155.442 177.019H107.168Z" fill="#111414"/>
<path d="M340.999 430.047C295.403 430.047 271.442 387.549 263.573 373.58L257.606 362.997L263.573 352.413C275.636 331.006 286.186 302.329 296.383 274.595C309.925 237.758 323.909 199.718 343.179 172.983C361.856 147.099 384.193 134 409.539 134H527V177.035C520.016 177.035 509.153 179.237 495.464 198.201C479.668 220.126 466.717 255.353 454.192 289.415C442.368 321.589 430.176 354.745 414.528 380.277C394.002 413.764 369.967 430.047 341.018 430.047H340.999ZM306.987 362.257C321.62 384.218 333.222 387.011 340.999 387.011C372.497 387.011 394.446 327.325 413.807 274.65C426.702 239.571 439.985 203.456 457.794 177.017H409.521C402.537 177.017 391.674 179.218 377.986 198.183C362.189 220.107 349.238 255.335 336.713 289.396C327.513 314.411 318.072 340.091 306.987 362.238V362.257Z" fill="#111414"/>
</g>
</g>
<defs>
<clipPath id="clip0_67_21">
<rect width="489" height="297" fill="white" transform="translate(38 134)"/>
</clipPath>
</defs>
</svg>
