<?xml version="1.0" encoding="UTF-8"?>
<svg id="Layer_1" xmlns="http://www.w3.org/2000/svg" viewBox="0 0 1225.17 741.55">
  <defs>
    <style>
      .cls-1 {
        fill: #f7f7f7;
      }
    </style>
  </defs>
  <g id="Layer_1-2" data-name="Layer_1">
    <path class="cls-1" d="M759.68,662.96c-29.22,0-70.53-14.11-104.78-72.54l145.09-393.95c29.22-83.63,72.54-122.92,173.3-122.92h105.79c-19.14,23.17-30.23,50.38-42.32,81.61l-150.12,396.97c-32.24,85.64-69.52,110.83-126.95,110.83h0ZM465.48,662.96c-57.43,0-94.71-25.19-126.95-110.83L188.41,155.16c-12.09-31.23-23.17-58.44-42.32-81.61h105.79c100.75,0,144.08,39.29,173.3,122.92l145.09,393.95c-34.26,58.44-75.57,72.54-104.78,72.54ZM453.39,741.55c69.52,0,113.85-25.19,159.19-76.57,45.34,51.38,89.67,76.57,159.19,76.57s148.11-49.37,190.43-159.19l158.18-405.03c26.2-67.51,49.37-125.94,104.78-177.33h-257.93c-146.09,0-210.58,64.48-252.89,181.36l-101.76,282.11-101.76-282.11C468.51,64.48,404.02,0,257.93,0H0c55.41,53.4,78.59,108.81,104.78,177.33l158.18,405.03c42.32,109.82,106.8,159.19,190.43,159.19h0Z"/>
  </g>
</svg>